<mxfile host="app.diagrams.net" agent="Mozilla/5.0 (Windows NT 10.0; Win64; x64) AppleWebKit/537.36 (KHTML, like Gecko) Chrome/128.0.0.0 Safari/537.36" version="24.7.14">
  <diagram name="Page-1" id="khQkismU4FeIpS_edpUK">
    <mxGraphModel dx="1434" dy="780" grid="1" gridSize="10" guides="1" tooltips="1" connect="1" arrows="1" fold="1" page="1" pageScale="1" pageWidth="850" pageHeight="1100" math="0" shadow="0">
      <root>
        <mxCell id="0" />
        <mxCell id="1" parent="0" />
        <mxCell id="tRihg9yN-XKKfIoe97ck-1" value="" style="rounded=1;whiteSpace=wrap;html=1;" parent="1" vertex="1">
          <mxGeometry x="50" y="240" width="760" height="560" as="geometry" />
        </mxCell>
        <mxCell id="jo6sd1CeYK9BWm6sm7q1-1" value="Kubernetes Cluster (1 Node)" style="text;html=1;align=center;verticalAlign=middle;whiteSpace=wrap;rounded=0;fontStyle=1" vertex="1" parent="1">
          <mxGeometry x="150" y="210" width="170" height="30" as="geometry" />
        </mxCell>
        <mxCell id="jo6sd1CeYK9BWm6sm7q1-2" value="" style="rounded=0;whiteSpace=wrap;html=1;dashed=1;" vertex="1" parent="1">
          <mxGeometry x="80" y="290" width="210" height="190" as="geometry" />
        </mxCell>
        <mxCell id="jo6sd1CeYK9BWm6sm7q1-3" value="" style="aspect=fixed;sketch=0;html=1;dashed=0;whitespace=wrap;verticalLabelPosition=bottom;verticalAlign=top;fillColor=#2875E2;strokeColor=#ffffff;points=[[0.005,0.63,0],[0.1,0.2,0],[0.9,0.2,0],[0.5,0,0],[0.995,0.63,0],[0.72,0.99,0],[0.5,1,0],[0.28,0.99,0]];shape=mxgraph.kubernetes.icon2;kubernetesLabel=1;prIcon=control_plane" vertex="1" parent="1">
          <mxGeometry x="180" y="262" width="50" height="48" as="geometry" />
        </mxCell>
        <mxCell id="jo6sd1CeYK9BWm6sm7q1-5" value="" style="aspect=fixed;sketch=0;html=1;dashed=0;whitespace=wrap;verticalLabelPosition=bottom;verticalAlign=top;fillColor=#2875E2;strokeColor=#ffffff;points=[[0.005,0.63,0],[0.1,0.2,0],[0.9,0.2,0],[0.5,0,0],[0.995,0.63,0],[0.72,0.99,0],[0.5,1,0],[0.28,0.99,0]];shape=mxgraph.kubernetes.icon2;kubernetesLabel=1;prIcon=ns" vertex="1" parent="1">
          <mxGeometry x="230" y="262" width="50" height="48" as="geometry" />
        </mxCell>
        <mxCell id="jo6sd1CeYK9BWm6sm7q1-6" value="" style="aspect=fixed;sketch=0;html=1;dashed=0;whitespace=wrap;verticalLabelPosition=bottom;verticalAlign=top;fillColor=#2875E2;strokeColor=#ffffff;points=[[0.005,0.63,0],[0.1,0.2,0],[0.9,0.2,0],[0.5,0,0],[0.995,0.63,0],[0.72,0.99,0],[0.5,1,0],[0.28,0.99,0]];shape=mxgraph.kubernetes.icon2;kubernetesLabel=1;prIcon=etcd" vertex="1" parent="1">
          <mxGeometry x="100" y="361" width="50" height="48" as="geometry" />
        </mxCell>
        <mxCell id="jo6sd1CeYK9BWm6sm7q1-7" value="" style="aspect=fixed;sketch=0;html=1;dashed=0;whitespace=wrap;verticalLabelPosition=bottom;verticalAlign=top;fillColor=#2875E2;strokeColor=#ffffff;points=[[0.005,0.63,0],[0.1,0.2,0],[0.9,0.2,0],[0.5,0,0],[0.995,0.63,0],[0.72,0.99,0],[0.5,1,0],[0.28,0.99,0]];shape=mxgraph.kubernetes.icon2;kubernetesLabel=1;prIcon=node" vertex="1" parent="1">
          <mxGeometry x="610" y="214" width="50" height="48" as="geometry" />
        </mxCell>
        <mxCell id="jo6sd1CeYK9BWm6sm7q1-8" value="" style="aspect=fixed;sketch=0;html=1;dashed=0;whitespace=wrap;verticalLabelPosition=bottom;verticalAlign=top;fillColor=#2875E2;strokeColor=#ffffff;points=[[0.005,0.63,0],[0.1,0.2,0],[0.9,0.2,0],[0.5,0,0],[0.995,0.63,0],[0.72,0.99,0],[0.5,1,0],[0.28,0.99,0]];shape=mxgraph.kubernetes.icon2;kubernetesLabel=1;prIcon=sched" vertex="1" parent="1">
          <mxGeometry x="160" y="420" width="50" height="48" as="geometry" />
        </mxCell>
        <mxCell id="jo6sd1CeYK9BWm6sm7q1-9" value="" style="aspect=fixed;sketch=0;html=1;dashed=0;whitespace=wrap;verticalLabelPosition=bottom;verticalAlign=top;fillColor=#2875E2;strokeColor=#ffffff;points=[[0.005,0.63,0],[0.1,0.2,0],[0.9,0.2,0],[0.5,0,0],[0.995,0.63,0],[0.72,0.99,0],[0.5,1,0],[0.28,0.99,0]];shape=mxgraph.kubernetes.icon2;kubernetesLabel=1;prIcon=api" vertex="1" parent="1">
          <mxGeometry x="100" y="300" width="50" height="48" as="geometry" />
        </mxCell>
        <mxCell id="jo6sd1CeYK9BWm6sm7q1-10" value="" style="aspect=fixed;sketch=0;html=1;dashed=0;whitespace=wrap;verticalLabelPosition=bottom;verticalAlign=top;fillColor=#2875E2;strokeColor=#ffffff;points=[[0.005,0.63,0],[0.1,0.2,0],[0.9,0.2,0],[0.5,0,0],[0.995,0.63,0],[0.72,0.99,0],[0.5,1,0],[0.28,0.99,0]];shape=mxgraph.kubernetes.icon2;kubernetesLabel=1;prIcon=c_m" vertex="1" parent="1">
          <mxGeometry x="100" y="420" width="50" height="48" as="geometry" />
        </mxCell>
        <mxCell id="jo6sd1CeYK9BWm6sm7q1-11" value="" style="aspect=fixed;sketch=0;html=1;dashed=0;whitespace=wrap;verticalLabelPosition=bottom;verticalAlign=top;fillColor=#2875E2;strokeColor=#ffffff;points=[[0.005,0.63,0],[0.1,0.2,0],[0.9,0.2,0],[0.5,0,0],[0.995,0.63,0],[0.72,0.99,0],[0.5,1,0],[0.28,0.99,0]];shape=mxgraph.kubernetes.icon2;kubernetesLabel=1;prIcon=k_proxy" vertex="1" parent="1">
          <mxGeometry x="220" y="420" width="50" height="48" as="geometry" />
        </mxCell>
        <mxCell id="jo6sd1CeYK9BWm6sm7q1-12" value="kube-system" style="text;html=1;align=center;verticalAlign=middle;whiteSpace=wrap;rounded=0;fontStyle=1" vertex="1" parent="1">
          <mxGeometry x="90" y="260" width="90" height="30" as="geometry" />
        </mxCell>
        <mxCell id="jo6sd1CeYK9BWm6sm7q1-13" value="" style="rounded=0;whiteSpace=wrap;html=1;dashed=1;" vertex="1" parent="1">
          <mxGeometry x="80" y="560" width="210" height="190" as="geometry" />
        </mxCell>
        <mxCell id="jo6sd1CeYK9BWm6sm7q1-14" value="" style="aspect=fixed;sketch=0;html=1;dashed=0;whitespace=wrap;verticalLabelPosition=bottom;verticalAlign=top;fillColor=#2875E2;strokeColor=#ffffff;points=[[0.005,0.63,0],[0.1,0.2,0],[0.9,0.2,0],[0.5,0,0],[0.995,0.63,0],[0.72,0.99,0],[0.5,1,0],[0.28,0.99,0]];shape=mxgraph.kubernetes.icon2;kubernetesLabel=1;prIcon=ns" vertex="1" parent="1">
          <mxGeometry x="230" y="530" width="50" height="48" as="geometry" />
        </mxCell>
        <mxCell id="jo6sd1CeYK9BWm6sm7q1-15" value="knative-serving" style="text;html=1;align=center;verticalAlign=middle;whiteSpace=wrap;rounded=0;fontStyle=1" vertex="1" parent="1">
          <mxGeometry x="90" y="530" width="100" height="30" as="geometry" />
        </mxCell>
        <mxCell id="jo6sd1CeYK9BWm6sm7q1-16" value="" style="aspect=fixed;sketch=0;html=1;dashed=0;whitespace=wrap;verticalLabelPosition=bottom;verticalAlign=top;fillColor=#2875E2;strokeColor=#ffffff;points=[[0.005,0.63,0],[0.1,0.2,0],[0.9,0.2,0],[0.5,0,0],[0.995,0.63,0],[0.72,0.99,0],[0.5,1,0],[0.28,0.99,0]];shape=mxgraph.kubernetes.icon2;kubernetesLabel=1;prIcon=c_m" vertex="1" parent="1">
          <mxGeometry x="160" y="690" width="50" height="48" as="geometry" />
        </mxCell>
        <mxCell id="jo6sd1CeYK9BWm6sm7q1-17" value="" style="aspect=fixed;sketch=0;html=1;dashed=0;whitespace=wrap;verticalLabelPosition=bottom;verticalAlign=top;fillColor=#2875E2;strokeColor=#ffffff;points=[[0.005,0.63,0],[0.1,0.2,0],[0.9,0.2,0],[0.5,0,0],[0.995,0.63,0],[0.72,0.99,0],[0.5,1,0],[0.28,0.99,0]];shape=mxgraph.kubernetes.icon2;kubernetesLabel=1;prIcon=c_m" vertex="1" parent="1">
          <mxGeometry x="100" y="690" width="50" height="48" as="geometry" />
        </mxCell>
        <mxCell id="jo6sd1CeYK9BWm6sm7q1-18" value="" style="image;sketch=0;aspect=fixed;html=1;points=[];align=center;fontSize=12;image=img/lib/mscae/Kubernetes.svg;" vertex="1" parent="1">
          <mxGeometry x="670" y="214" width="50" height="48" as="geometry" />
        </mxCell>
        <mxCell id="jo6sd1CeYK9BWm6sm7q1-21" value="" style="aspect=fixed;sketch=0;html=1;dashed=0;whitespace=wrap;verticalLabelPosition=bottom;verticalAlign=top;fillColor=#2875E2;strokeColor=#ffffff;points=[[0.005,0.63,0],[0.1,0.2,0],[0.9,0.2,0],[0.5,0,0],[0.995,0.63,0],[0.72,0.99,0],[0.5,1,0],[0.28,0.99,0]];shape=mxgraph.kubernetes.icon2;prIcon=api" vertex="1" parent="1">
          <mxGeometry x="100" y="572" width="50" height="48" as="geometry" />
        </mxCell>
        <mxCell id="jo6sd1CeYK9BWm6sm7q1-22" value="&lt;span style=&quot;font-weight: normal;&quot;&gt;autoscaler&lt;/span&gt;" style="text;html=1;align=center;verticalAlign=middle;whiteSpace=wrap;rounded=0;fontStyle=1" vertex="1" parent="1">
          <mxGeometry x="90" y="620" width="70" height="30" as="geometry" />
        </mxCell>
        <mxCell id="jo6sd1CeYK9BWm6sm7q1-23" value="" style="rounded=0;whiteSpace=wrap;html=1;dashed=1;" vertex="1" parent="1">
          <mxGeometry x="560" y="290" width="210" height="190" as="geometry" />
        </mxCell>
        <mxCell id="jo6sd1CeYK9BWm6sm7q1-24" value="" style="aspect=fixed;sketch=0;html=1;dashed=0;whitespace=wrap;verticalLabelPosition=bottom;verticalAlign=top;fillColor=#2875E2;strokeColor=#ffffff;points=[[0.005,0.63,0],[0.1,0.2,0],[0.9,0.2,0],[0.5,0,0],[0.995,0.63,0],[0.72,0.99,0],[0.5,1,0],[0.28,0.99,0]];shape=mxgraph.kubernetes.icon2;kubernetesLabel=1;prIcon=ns" vertex="1" parent="1">
          <mxGeometry x="710" y="262" width="50" height="48" as="geometry" />
        </mxCell>
        <mxCell id="jo6sd1CeYK9BWm6sm7q1-25" value="istio-system" style="text;html=1;align=center;verticalAlign=middle;whiteSpace=wrap;rounded=0;fontStyle=1" vertex="1" parent="1">
          <mxGeometry x="560" y="260" width="80" height="30" as="geometry" />
        </mxCell>
        <mxCell id="jo6sd1CeYK9BWm6sm7q1-26" value="" style="aspect=fixed;sketch=0;html=1;dashed=0;whitespace=wrap;verticalLabelPosition=bottom;verticalAlign=top;fillColor=#2875E2;strokeColor=#ffffff;points=[[0.005,0.63,0],[0.1,0.2,0],[0.9,0.2,0],[0.5,0,0],[0.995,0.63,0],[0.72,0.99,0],[0.5,1,0],[0.28,0.99,0]];shape=mxgraph.kubernetes.icon2;kubernetesLabel=1;prIcon=ing" vertex="1" parent="1">
          <mxGeometry x="580" y="300" width="50" height="48" as="geometry" />
        </mxCell>
        <mxCell id="jo6sd1CeYK9BWm6sm7q1-27" value="" style="aspect=fixed;sketch=0;html=1;dashed=0;whitespace=wrap;verticalLabelPosition=bottom;verticalAlign=top;fillColor=#2875E2;strokeColor=#ffffff;points=[[0.005,0.63,0],[0.1,0.2,0],[0.9,0.2,0],[0.5,0,0],[0.995,0.63,0],[0.72,0.99,0],[0.5,1,0],[0.28,0.99,0]];shape=mxgraph.kubernetes.icon2;prIcon=quota" vertex="1" parent="1">
          <mxGeometry x="580" y="420" width="50" height="48" as="geometry" />
        </mxCell>
        <mxCell id="jo6sd1CeYK9BWm6sm7q1-28" value="" style="aspect=fixed;sketch=0;html=1;dashed=0;whitespace=wrap;verticalLabelPosition=bottom;verticalAlign=top;fillColor=#2875E2;strokeColor=#ffffff;points=[[0.005,0.63,0],[0.1,0.2,0],[0.9,0.2,0],[0.5,0,0],[0.995,0.63,0],[0.72,0.99,0],[0.5,1,0],[0.28,0.99,0]];shape=mxgraph.kubernetes.icon2;prIcon=quota" vertex="1" parent="1">
          <mxGeometry x="640" y="420" width="50" height="48" as="geometry" />
        </mxCell>
        <mxCell id="jo6sd1CeYK9BWm6sm7q1-29" value="" style="aspect=fixed;sketch=0;html=1;dashed=0;whitespace=wrap;verticalLabelPosition=bottom;verticalAlign=top;fillColor=#2875E2;strokeColor=#ffffff;points=[[0.005,0.63,0],[0.1,0.2,0],[0.9,0.2,0],[0.5,0,0],[0.995,0.63,0],[0.72,0.99,0],[0.5,1,0],[0.28,0.99,0]];shape=mxgraph.kubernetes.icon2;prIcon=quota" vertex="1" parent="1">
          <mxGeometry x="700" y="420" width="50" height="48" as="geometry" />
        </mxCell>
        <mxCell id="jo6sd1CeYK9BWm6sm7q1-30" value="&lt;span style=&quot;font-weight: normal;&quot;&gt;monitoring&lt;/span&gt;" style="text;html=1;align=center;verticalAlign=middle;whiteSpace=wrap;rounded=0;fontStyle=1" vertex="1" parent="1">
          <mxGeometry x="630" y="390" width="70" height="30" as="geometry" />
        </mxCell>
        <mxCell id="jo6sd1CeYK9BWm6sm7q1-31" value="" style="aspect=fixed;sketch=0;html=1;dashed=0;whitespace=wrap;verticalLabelPosition=bottom;verticalAlign=top;fillColor=#2875E2;strokeColor=#ffffff;points=[[0.005,0.63,0],[0.1,0.2,0],[0.9,0.2,0],[0.5,0,0],[0.995,0.63,0],[0.72,0.99,0],[0.5,1,0],[0.28,0.99,0]];shape=mxgraph.kubernetes.icon2;kubernetesLabel=1;prIcon=kubelet" vertex="1" parent="1">
          <mxGeometry x="160" y="361" width="50" height="48" as="geometry" />
        </mxCell>
        <mxCell id="jo6sd1CeYK9BWm6sm7q1-32" value="" style="rounded=0;whiteSpace=wrap;html=1;dashed=1;" vertex="1" parent="1">
          <mxGeometry x="560" y="560" width="210" height="190" as="geometry" />
        </mxCell>
        <mxCell id="jo6sd1CeYK9BWm6sm7q1-33" value="" style="aspect=fixed;sketch=0;html=1;dashed=0;whitespace=wrap;verticalLabelPosition=bottom;verticalAlign=top;fillColor=#2875E2;strokeColor=#ffffff;points=[[0.005,0.63,0],[0.1,0.2,0],[0.9,0.2,0],[0.5,0,0],[0.995,0.63,0],[0.72,0.99,0],[0.5,1,0],[0.28,0.99,0]];shape=mxgraph.kubernetes.icon2;kubernetesLabel=1;prIcon=ns" vertex="1" parent="1">
          <mxGeometry x="750" y="630" width="50" height="48" as="geometry" />
        </mxCell>
        <mxCell id="jo6sd1CeYK9BWm6sm7q1-34" value="default" style="text;html=1;align=center;verticalAlign=middle;whiteSpace=wrap;rounded=0;fontStyle=1" vertex="1" parent="1">
          <mxGeometry x="575" y="530" width="50" height="30" as="geometry" />
        </mxCell>
        <mxCell id="jo6sd1CeYK9BWm6sm7q1-35" value="" style="aspect=fixed;sketch=0;html=1;dashed=0;whitespace=wrap;verticalLabelPosition=bottom;verticalAlign=top;fillColor=#2875E2;strokeColor=#ffffff;points=[[0.005,0.63,0],[0.1,0.2,0],[0.9,0.2,0],[0.5,0,0],[0.995,0.63,0],[0.72,0.99,0],[0.5,1,0],[0.28,0.99,0]];shape=mxgraph.kubernetes.icon2;kubernetesLabel=1;prIcon=job" vertex="1" parent="1">
          <mxGeometry x="700" y="572" width="50" height="48" as="geometry" />
        </mxCell>
        <mxCell id="jo6sd1CeYK9BWm6sm7q1-36" value="" style="aspect=fixed;sketch=0;html=1;dashed=0;whitespace=wrap;verticalLabelPosition=bottom;verticalAlign=top;fillColor=#2875E2;strokeColor=#ffffff;points=[[0.005,0.63,0],[0.1,0.2,0],[0.9,0.2,0],[0.5,0,0],[0.995,0.63,0],[0.72,0.99,0],[0.5,1,0],[0.28,0.99,0]];shape=mxgraph.kubernetes.icon2;kubernetesLabel=1;prIcon=pod" vertex="1" parent="1">
          <mxGeometry x="700" y="690" width="50" height="48" as="geometry" />
        </mxCell>
        <mxCell id="jo6sd1CeYK9BWm6sm7q1-37" value="" style="aspect=fixed;sketch=0;html=1;dashed=0;whitespace=wrap;verticalLabelPosition=bottom;verticalAlign=top;fillColor=#2875E2;strokeColor=#ffffff;points=[[0.005,0.63,0],[0.1,0.2,0],[0.9,0.2,0],[0.5,0,0],[0.995,0.63,0],[0.72,0.99,0],[0.5,1,0],[0.28,0.99,0]];shape=mxgraph.kubernetes.icon2;kubernetesLabel=1;prIcon=role" vertex="1" parent="1">
          <mxGeometry x="575" y="572" width="50" height="48" as="geometry" />
        </mxCell>
        <mxCell id="jo6sd1CeYK9BWm6sm7q1-38" value="" style="aspect=fixed;sketch=0;html=1;dashed=0;whitespace=wrap;verticalLabelPosition=bottom;verticalAlign=top;fillColor=#2875E2;strokeColor=#ffffff;points=[[0.005,0.63,0],[0.1,0.2,0],[0.9,0.2,0],[0.5,0,0],[0.995,0.63,0],[0.72,0.99,0],[0.5,1,0],[0.28,0.99,0]];shape=mxgraph.kubernetes.icon2;kubernetesLabel=1;prIcon=secret" vertex="1" parent="1">
          <mxGeometry x="640" y="572" width="50" height="48" as="geometry" />
        </mxCell>
        <mxCell id="jo6sd1CeYK9BWm6sm7q1-39" value="" style="aspect=fixed;sketch=0;html=1;dashed=0;whitespace=wrap;verticalLabelPosition=bottom;verticalAlign=top;fillColor=#2875E2;strokeColor=#ffffff;points=[[0.005,0.63,0],[0.1,0.2,0],[0.9,0.2,0],[0.5,0,0],[0.995,0.63,0],[0.72,0.99,0],[0.5,1,0],[0.28,0.99,0]];shape=mxgraph.kubernetes.icon2;kubernetesLabel=1;prIcon=pod" vertex="1" parent="1">
          <mxGeometry x="640" y="690" width="50" height="48" as="geometry" />
        </mxCell>
        <mxCell id="jo6sd1CeYK9BWm6sm7q1-40" value="" style="aspect=fixed;sketch=0;html=1;dashed=0;whitespace=wrap;verticalLabelPosition=bottom;verticalAlign=top;fillColor=#2875E2;strokeColor=#ffffff;points=[[0.005,0.63,0],[0.1,0.2,0],[0.9,0.2,0],[0.5,0,0],[0.995,0.63,0],[0.72,0.99,0],[0.5,1,0],[0.28,0.99,0]];shape=mxgraph.kubernetes.icon2;kubernetesLabel=1;prIcon=pod" vertex="1" parent="1">
          <mxGeometry x="575" y="690" width="50" height="48" as="geometry" />
        </mxCell>
        <mxCell id="jo6sd1CeYK9BWm6sm7q1-44" value="" style="aspect=fixed;sketch=0;html=1;dashed=0;whitespace=wrap;verticalLabelPosition=bottom;verticalAlign=top;fillColor=#2875E2;strokeColor=#ffffff;points=[[0.005,0.63,0],[0.1,0.2,0],[0.9,0.2,0],[0.5,0,0],[0.995,0.63,0],[0.72,0.99,0],[0.5,1,0],[0.28,0.99,0]];shape=mxgraph.kubernetes.icon2;kubernetesLabel=1;prIcon=ing" vertex="1" parent="1">
          <mxGeometry x="400" y="150" width="50" height="48" as="geometry" />
        </mxCell>
        <mxCell id="jo6sd1CeYK9BWm6sm7q1-45" style="edgeStyle=orthogonalEdgeStyle;rounded=0;orthogonalLoop=1;jettySize=auto;html=1;entryX=0.5;entryY=0;entryDx=0;entryDy=0;entryPerimeter=0;strokeColor=#66CC00;" edge="1" parent="1" target="jo6sd1CeYK9BWm6sm7q1-44">
          <mxGeometry relative="1" as="geometry">
            <mxPoint x="425" y="90" as="sourcePoint" />
          </mxGeometry>
        </mxCell>
        <mxCell id="jo6sd1CeYK9BWm6sm7q1-46" style="edgeStyle=orthogonalEdgeStyle;rounded=0;orthogonalLoop=1;jettySize=auto;html=1;exitX=0.5;exitY=1;exitDx=0;exitDy=0;exitPerimeter=0;entryX=0.005;entryY=0.63;entryDx=0;entryDy=0;entryPerimeter=0;strokeColor=#66CC00;" edge="1" parent="1" source="jo6sd1CeYK9BWm6sm7q1-44" target="jo6sd1CeYK9BWm6sm7q1-26">
          <mxGeometry relative="1" as="geometry" />
        </mxCell>
        <mxCell id="jo6sd1CeYK9BWm6sm7q1-47" value="" style="outlineConnect=0;dashed=0;verticalLabelPosition=bottom;verticalAlign=top;align=center;html=1;shape=mxgraph.aws3.users;fillColor=#D2D3D3;gradientColor=none;" vertex="1" parent="1">
          <mxGeometry x="392" y="30" width="66" height="63" as="geometry" />
        </mxCell>
        <mxCell id="jo6sd1CeYK9BWm6sm7q1-48" value="Users" style="text;html=1;align=center;verticalAlign=middle;whiteSpace=wrap;rounded=0;fontStyle=1" vertex="1" parent="1">
          <mxGeometry x="380" width="90" height="30" as="geometry" />
        </mxCell>
        <mxCell id="jo6sd1CeYK9BWm6sm7q1-49" value="Traffic" style="text;html=1;align=center;verticalAlign=middle;whiteSpace=wrap;rounded=0;fontStyle=1" vertex="1" parent="1">
          <mxGeometry x="425" y="110" width="50" height="30" as="geometry" />
        </mxCell>
        <mxCell id="jo6sd1CeYK9BWm6sm7q1-51" style="edgeStyle=orthogonalEdgeStyle;rounded=0;orthogonalLoop=1;jettySize=auto;html=1;exitX=0.5;exitY=1;exitDx=0;exitDy=0;exitPerimeter=0;strokeColor=#66CC00;" edge="1" parent="1" target="jo6sd1CeYK9BWm6sm7q1-65">
          <mxGeometry relative="1" as="geometry">
            <mxPoint x="610" y="348" as="sourcePoint" />
            <mxPoint x="645.25" y="656.2399999999999" as="targetPoint" />
            <Array as="points">
              <mxPoint x="610" y="390" />
              <mxPoint x="425" y="390" />
              <mxPoint x="425" y="654" />
            </Array>
          </mxGeometry>
        </mxCell>
        <mxCell id="jo6sd1CeYK9BWm6sm7q1-52" style="edgeStyle=orthogonalEdgeStyle;rounded=0;orthogonalLoop=1;jettySize=auto;html=1;entryX=0.5;entryY=0;entryDx=0;entryDy=0;entryPerimeter=0;exitX=0.5;exitY=1;exitDx=0;exitDy=0;exitPerimeter=0;" edge="1" parent="1" source="jo6sd1CeYK9BWm6sm7q1-65" target="jo6sd1CeYK9BWm6sm7q1-39">
          <mxGeometry relative="1" as="geometry">
            <mxPoint x="665" y="680" as="sourcePoint" />
          </mxGeometry>
        </mxCell>
        <mxCell id="jo6sd1CeYK9BWm6sm7q1-55" style="edgeStyle=orthogonalEdgeStyle;rounded=0;orthogonalLoop=1;jettySize=auto;html=1;exitX=0.5;exitY=1;exitDx=0;exitDy=0;exitPerimeter=0;entryX=0.5;entryY=0;entryDx=0;entryDy=0;entryPerimeter=0;" edge="1" parent="1" source="jo6sd1CeYK9BWm6sm7q1-65" target="jo6sd1CeYK9BWm6sm7q1-40">
          <mxGeometry relative="1" as="geometry">
            <mxPoint x="665" y="674" as="sourcePoint" />
            <Array as="points">
              <mxPoint x="665" y="670" />
              <mxPoint x="600" y="670" />
            </Array>
          </mxGeometry>
        </mxCell>
        <mxCell id="jo6sd1CeYK9BWm6sm7q1-56" style="edgeStyle=orthogonalEdgeStyle;rounded=0;orthogonalLoop=1;jettySize=auto;html=1;exitX=0.5;exitY=1;exitDx=0;exitDy=0;exitPerimeter=0;entryX=0.5;entryY=0;entryDx=0;entryDy=0;entryPerimeter=0;" edge="1" parent="1" target="jo6sd1CeYK9BWm6sm7q1-36">
          <mxGeometry relative="1" as="geometry">
            <mxPoint x="665" y="674" as="sourcePoint" />
            <Array as="points">
              <mxPoint x="665" y="670" />
              <mxPoint x="725" y="670" />
            </Array>
          </mxGeometry>
        </mxCell>
        <mxCell id="jo6sd1CeYK9BWm6sm7q1-57" value="" style="outlineConnect=0;dashed=0;verticalLabelPosition=bottom;verticalAlign=top;align=center;html=1;shape=mxgraph.aws3.user;fillColor=#D2D3D3;gradientColor=none;" vertex="1" parent="1">
          <mxGeometry x="163" y="30" width="45" height="63" as="geometry" />
        </mxCell>
        <mxCell id="jo6sd1CeYK9BWm6sm7q1-58" value="Developer" style="text;html=1;align=center;verticalAlign=middle;whiteSpace=wrap;rounded=0;fontStyle=1" vertex="1" parent="1">
          <mxGeometry x="140" width="90" height="30" as="geometry" />
        </mxCell>
        <mxCell id="jo6sd1CeYK9BWm6sm7q1-59" style="edgeStyle=orthogonalEdgeStyle;rounded=0;orthogonalLoop=1;jettySize=auto;html=1;exitX=0.5;exitY=1;exitDx=0;exitDy=0;exitPerimeter=0;entryX=0.005;entryY=0.63;entryDx=0;entryDy=0;entryPerimeter=0;strokeColor=#3399FF;" edge="1" parent="1" source="jo6sd1CeYK9BWm6sm7q1-57" target="jo6sd1CeYK9BWm6sm7q1-9">
          <mxGeometry relative="1" as="geometry">
            <Array as="points">
              <mxPoint x="186" y="197" />
              <mxPoint x="20" y="197" />
              <mxPoint x="20" y="330" />
            </Array>
          </mxGeometry>
        </mxCell>
        <mxCell id="jo6sd1CeYK9BWm6sm7q1-60" style="edgeStyle=orthogonalEdgeStyle;rounded=0;orthogonalLoop=1;jettySize=auto;html=1;exitX=0.995;exitY=0.63;exitDx=0;exitDy=0;exitPerimeter=0;entryX=0.5;entryY=0;entryDx=0;entryDy=0;entryPerimeter=0;strokeColor=#3399FF;" edge="1" parent="1" source="jo6sd1CeYK9BWm6sm7q1-9" target="jo6sd1CeYK9BWm6sm7q1-31">
          <mxGeometry relative="1" as="geometry" />
        </mxCell>
        <mxCell id="jo6sd1CeYK9BWm6sm7q1-61" style="edgeStyle=orthogonalEdgeStyle;rounded=0;orthogonalLoop=1;jettySize=auto;html=1;exitX=0.995;exitY=0.63;exitDx=0;exitDy=0;exitPerimeter=0;strokeColor=#3399FF;" edge="1" parent="1">
          <mxGeometry relative="1" as="geometry">
            <mxPoint x="210" y="390.05" as="sourcePoint" />
            <mxPoint x="290.25" y="653.81" as="targetPoint" />
            <Array as="points">
              <mxPoint x="380.25" y="389.81" />
              <mxPoint x="380.25" y="653.81" />
              <mxPoint x="291.25" y="653.81" />
            </Array>
          </mxGeometry>
        </mxCell>
        <mxCell id="jo6sd1CeYK9BWm6sm7q1-62" value="" style="endArrow=classic;html=1;rounded=0;entryX=-0.002;entryY=0.737;entryDx=0;entryDy=0;entryPerimeter=0;strokeColor=#3399FF;" edge="1" parent="1" target="jo6sd1CeYK9BWm6sm7q1-23">
          <mxGeometry width="50" height="50" relative="1" as="geometry">
            <mxPoint x="380" y="430" as="sourcePoint" />
            <mxPoint x="430" y="430" as="targetPoint" />
          </mxGeometry>
        </mxCell>
        <mxCell id="jo6sd1CeYK9BWm6sm7q1-63" value="" style="endArrow=classic;html=1;rounded=0;entryX=-0.002;entryY=0.737;entryDx=0;entryDy=0;entryPerimeter=0;strokeColor=#3399FF;" edge="1" parent="1">
          <mxGeometry width="50" height="50" relative="1" as="geometry">
            <mxPoint x="380" y="572" as="sourcePoint" />
            <mxPoint x="560" y="572" as="targetPoint" />
          </mxGeometry>
        </mxCell>
        <mxCell id="jo6sd1CeYK9BWm6sm7q1-65" value="" style="aspect=fixed;sketch=0;html=1;dashed=0;whitespace=wrap;verticalLabelPosition=bottom;verticalAlign=top;fillColor=#2875E2;strokeColor=#ffffff;points=[[0.005,0.63,0],[0.1,0.2,0],[0.9,0.2,0],[0.5,0,0],[0.995,0.63,0],[0.72,0.99,0],[0.5,1,0],[0.28,0.99,0]];shape=mxgraph.kubernetes.icon2;kubernetesLabel=1;prIcon=svc" vertex="1" parent="1">
          <mxGeometry x="640" y="630" width="50" height="48" as="geometry" />
        </mxCell>
      </root>
    </mxGraphModel>
  </diagram>
</mxfile>
